<svg version="1.0" xmlns="http://www.w3.org/2000/svg"
 width="240.000000pt" height="235.000000pt" viewBox="0 0 240.000000 235.000000"
 preserveAspectRatio="xMidYMid meet">
<metadata>
Created by potrace 1.16, written by Peter Selinger 2001-2019
</metadata>
<g transform="translate(0.000000,235.000000) scale(0.100000,-0.100000)"
fill="#000000" stroke="none">
<path d="M1038 2245 c-117 -43 -181 -88 -244 -170 -65 -86 -94 -175 -94 -295
0 -128 35 -227 109 -312 23 -25 41 -51 41 -57 0 -8 -63 -11 -204 -11 -225 0
-275 -7 -369 -54 -76 -38 -127 -102 -156 -196 -21 -64 -22 -88 -21 -402 0
-307 2 -338 21 -398 39 -123 104 -188 236 -232 l68 -23 755 0 755 1 68 22
c132 44 197 108 237 235 20 63 21 87 21 400 -1 307 -3 337 -22 398 -29 93 -80
157 -156 195 -93 46 -144 54 -363 54 -124 0 -201 4 -205 10 -4 6 12 32 35 58
76 85 110 183 110 311 0 228 -117 387 -341 466 -53 19 -230 19 -281 0z m-18
-1390 c7 -8 24 -15 39 -15 14 0 35 -1 46 -1 11 0 40 1 65 4 25 2 51 -1 58 -7
10 -7 20 -6 33 2 14 9 25 10 40 1 16 -8 29 -7 51 2 28 12 33 11 50 -11 22 -28
20 -63 -4 -68 -13 -3 -18 3 -18 22 0 14 -4 26 -10 26 -5 0 -10 -11 -10 -25 0
-27 7 -25 -118 -30 -61 -2 -62 -2 -60 23 4 33 -19 40 -31 9 -17 -44 -121 -45
-121 -2 0 22 -28 18 -42 -5 -23 -36 -38 -24 -38 28 0 27 3 52 7 55 12 12 50 7
63 -8z"/>
</g>
</svg>
